<svg xmlns="http://www.w3.org/2000/svg" width="512" height="512" style="enable-background:new 0 0 512 512" xml:space="preserve"><path d="M504.5 497H333.468v-71.037a49.917 49.917 0 0 0 13.476 1.857H461.93c27.608 0 50.069-22.461 50.069-50.07a7.5 7.5 0 0 0-7.5-7.5h-20.692l-58.915-109.153c5.956-5.507 9.694-13.377 9.694-22.106 0-14.025-9.642-25.843-22.649-29.183V89.048h18.622v4.19c0 9.697 15 9.697 15 0v-4.19h36.999c25.819 0 25.857-40.227 0-40.227h-36.999V41.28c0-9.697-15-9.697-15 0v7.542h-18.622V41.28c0-9.697-15-9.697-15 0v7.542h-61.96V33.083c0-14.75-12-26.75-26.75-26.75a26.606 26.606 0 0 0-16.262 5.531C287.159 4.715 278.993 0 269.745 0s-17.414 4.715-22.22 11.865a26.606 26.606 0 0 0-16.262-5.531c-10.056 0-18.831 5.58-23.399 13.804a26.593 26.593 0 0 0-15.083-4.672c-14.75 0-26.75 12-26.75 26.75v6.605h-50.968V41.28c0-9.697-15-9.697-15 0v7.542H81.441V41.28c0-9.697-15-9.697-15 0v7.542H29.442c-25.819 0-25.857 40.227 0 40.227h36.999v4.19c0 9.697 15 9.697 15 0v-4.19h18.622v120.759c-13.008 3.34-22.649 15.157-22.649 29.183 0 8.729 3.738 16.599 9.695 22.107L28.192 370.25H7.5a7.5 7.5 0 0 0-7.5 7.5c0 27.608 22.461 50.069 50.069 50.069h114.986c4.669 0 9.185-.656 13.476-1.857V497H7.5a7.5 7.5 0 0 0 0 15h497a7.5 7.5 0 0 0 0-15zm-37.738-126.75h-15.081a7.5 7.5 0 0 0 0 15h27.634l.025.002.027-.002h16.825c-3.443 15.747-17.498 27.569-34.262 27.569H346.944c-16.764 0-30.819-11.823-34.262-27.57h16.82l.032.002.029-.002h82.193v-15h-69.645l55.066-102.021c4.839 1.185 9.678 1.185 14.518 0zm-273.23-101.045h124.937v34.591H193.532zm226.055-30.215c0 8.341-6.796 15.127-15.149 15.127s-15.15-6.786-15.15-15.127 6.796-15.127 15.15-15.127 15.149 6.786 15.149 15.127zm-22.649-29.183c-13.008 3.34-22.65 15.157-22.65 29.183 0 8.729 3.738 16.599 9.695 22.107l-50.514 93.587v-92.979a7.5 7.5 0 0 0-7.5-7.5h-6.577c-.645-14.855 4.129-29.266 14.761-39.885 23.766-23.737 43.71-47.675 43.71-83.355v-30.222c0-4.192-.973-8.16-2.702-11.694h21.778v120.758zm85.62-145.985c6.61 0 6.61 10.227 0 10.227h-36.999V63.822zm-51.999 0v10.227h-18.622V63.822zm-33.621 0v10.227l-61.96-.032V63.822zm-88.711-42.489c6.479 0 11.75 5.271 11.75 11.75v40.933h-23.482V32.708c.201-6.305 5.38-11.375 11.732-11.375zM269.745 15c6.479 0 11.75 5.263 11.75 11.731l-.019 47.59c-6.218 1.322-10.897 6.848-10.897 13.45a39.412 39.412 0 0 0 5.243 19.67c-7.695 4.646-17.827-1.053-17.827-10.036V26.731c0-6.468 5.271-11.731 11.75-11.731zm-38.482 6.333c6.353 0 11.531 5.07 11.731 11.374v59.735c-.201 6.304-5.379 11.375-11.731 11.375-6.479 0-11.75-5.271-11.75-11.75V33.083c0-6.479 5.271-11.75 11.75-11.75zm-50.232 20.883c0-6.479 5.271-11.75 11.75-11.75 6.353 0 11.531 5.07 11.731 11.375v41.47c-.201 6.304-5.379 11.375-11.731 11.375-6.479 0-11.75-5.271-11.75-11.75zm-15 21.606v10.227h-50.968V63.822zM29.442 74.048c-6.61 0-6.61-10.227 0-10.227h36.999v10.227zm51.999 0V63.822h18.622v10.227H81.441zm84.59 15v35.035a7.5 7.5 0 0 0 15 0v-17.124a26.584 26.584 0 0 0 11.75 2.726 26.593 26.593 0 0 0 15.083-4.672c4.568 8.224 13.342 13.804 23.399 13.804 6.324 0 12.138-2.21 16.722-5.893 4.857 6.78 12.797 11.211 21.76 11.211a26.74 26.74 0 0 0 15.927-5.258c6.779 5.372 15.34 8.592 24.645 8.592h12.001v.165c-32.727 3.729-58.232 31.562-58.232 65.234a7.5 7.5 0 0 0 15 0c0-27.934 22.758-50.659 50.732-50.659a7.5 7.5 0 0 0 7.5-7.5v-14.74a7.5 7.5 0 0 0-7.5-7.5h-19.501c-13.223 0-24.055-10.41-24.707-23.453 22.044 0 44.086.032 66.129.032 6.187.329 11.123 5.44 11.123 11.694v30.222c0 31.598-18.458 51.914-39.31 72.742-13.606 13.588-19.341 31.605-19.161 50.499h-97.373c.552-16.72-5.035-32.231-14.215-46.052a73.997 73.997 0 0 1-11.773-40.086 7.5 7.5 0 0 0-15 0 88.965 88.965 0 0 0 14.188 48.248c7.46 11.545 12.371 23.964 11.8 37.89h-5.987a7.5 7.5 0 0 0-7.5 7.5v92.979l-50.514-93.587c5.957-5.507 9.695-13.378 9.695-22.107 0-14.025-9.642-25.843-22.65-29.183V89.048zm-58.468 134.815c8.354 0 15.15 6.786 15.15 15.127s-6.796 15.127-15.15 15.127-15.149-6.786-15.149-15.127 6.795-15.127 15.149-15.127zm-7.259 44.366a30.11 30.11 0 0 0 14.517 0l55.067 102.022H45.238zM50.069 412.82c-16.764 0-30.819-11.823-34.262-27.569h16.828l.024.001.022-.001h149.762l.022.001.024-.001h16.828c-3.443 15.747-17.498 27.569-34.262 27.569zM193.532 497v-78.1c13.035-9.048 21.593-24.115 21.593-41.15a7.5 7.5 0 0 0-7.5-7.5h-14.093v-51.455h124.937v51.455h-14.093a7.5 7.5 0 0 0-7.5 7.5c0 17.035 8.558 32.102 21.593 41.15V497z" fill="#fff" data-original="#000000"/></svg>