<svg xmlns="http://www.w3.org/2000/svg" width="512" height="512" style="enable-background:new 0 0 512 512" xml:space="preserve"><path d="M509.831 200.951v-31.827c0-7.444-6.056-13.5-13.5-13.5h-31.747l-86.298-65.932a7.5 7.5 0 0 0-9.107 11.919l70.697 54.013h-32.013L264.738 46.283c-5.144-3.937-12.33-3.936-17.472-.003L104.138 155.623H72.125L256 15.144l85.369 65.226a7.5 7.5 0 0 0 9.107-11.919l-85.752-65.52c-5.136-3.909-12.311-3.909-17.456.008L47.416 155.623H15.669c-7.444 0-13.5 6.056-13.5 13.5v31.827c0 7.444 6.056 13.5 13.5 13.5h15.498c-3.144 4.756-5.061 10.344-5.274 16.32-.317 8.908 2.912 17.341 9.091 23.743 5.59 5.792 12.919 9.221 20.851 9.826v90.497a7.5 7.5 0 0 0 15 0v-92.901c6.065-2.528 11.326-6.858 14.945-12.532h18.624a32.447 32.447 0 0 0 14.952 12.539v157.796h-48.52v-29.901a7.5 7.5 0 0 0-15 0v29.901h-5.42c-9.738 0-17.661 7.918-17.661 17.65v16.478H22.628c-11.281 0-20.458 9.177-20.458 20.458v26.499C2.17 506.986 7.184 512 13.347 512h485.309c6.163 0 11.177-5.014 11.177-11.177v-26.499c0-11.281-9.177-20.458-20.458-20.458h-10.127v-16.478c0-9.733-7.923-17.65-17.661-17.65h-5.42v-155.41c.388-.029.774-.045 1.163-.088 14.92-1.662 26.947-13.698 28.596-28.62a32.714 32.714 0 0 0-4.915-21.169h15.322c7.442 0 13.498-6.056 13.498-13.5zM256 58.484l127.153 97.139H128.847zM106.044 234.403H84.138c-4.333 0-8.379 2.374-10.558 6.196a17.571 17.571 0 0 1-11.726 8.493l-.048.009c-1.12.226-2.269.344-3.434.344a17.354 17.354 0 0 1-12.593-5.349c-3.326-3.446-5.064-7.99-4.894-12.793.331-9.292 8.444-16.852 18.085-16.852h72.846c4.969 0 9.722 2.125 13.04 5.831 3.363 3.754 4.906 8.617 4.345 13.691-.885 8.008-7.34 14.468-15.347 15.359-7.064.787-13.857-2.685-17.31-8.844-2.103-3.753-6.127-6.085-10.5-6.085zm28.313 29.925c.386-.029.77-.045 1.157-.088 14.92-1.662 26.947-13.698 28.596-28.619a32.718 32.718 0 0 0-4.915-21.17h32.878c-3.144 4.756-5.061 10.344-5.274 16.319-.317 8.908 2.911 17.341 9.09 23.743 5.589 5.791 12.917 9.22 20.849 9.826v155.399h-5.421c-9.733 0-17.65 7.918-17.65 17.65v16.478h-36.241v-16.478c0-9.733-7.918-17.65-17.651-17.65h-5.42v-155.41zm222.441-9.814c5.588 5.79 12.915 9.219 20.845 9.825v155.399h-5.42c-9.733 0-17.651 7.918-17.651 17.65v16.478h-36.241v-16.478c0-9.733-7.918-17.65-17.65-17.65h-5.421v-155.41c.387-.029.773-.045 1.161-.088 14.921-1.662 26.947-13.698 28.596-28.619a32.718 32.718 0 0 0-4.915-21.17h32.878c-3.144 4.756-5.061 10.344-5.274 16.32-.316 8.908 2.913 17.34 9.092 23.743zM208.669 453.866v-16.478a2.653 2.653 0 0 1 2.65-2.65h89.362a2.653 2.653 0 0 1 2.65 2.65v16.478zm23.071-191.93c6.066-2.528 11.328-6.859 14.948-12.533h18.624a32.43 32.43 0 0 0 14.949 12.535v157.8H231.74zm74.023-41.655c3.363 3.755 4.906 8.617 4.345 13.692-.885 8.008-7.339 14.467-15.346 15.359-7.063.788-13.858-2.685-17.31-8.844-2.104-3.753-6.128-6.085-10.5-6.085h-21.907c-4.333 0-8.379 2.374-10.558 6.196a17.55 17.55 0 0 1-15.209 8.846 17.354 17.354 0 0 1-12.593-5.349c-3.326-3.446-5.064-7.99-4.893-12.793.331-9.293 8.443-16.852 18.085-16.852h72.847c4.968 0 9.721 2.125 13.039 5.83zM47.755 437.388a2.658 2.658 0 0 1 2.66-2.65h89.362a2.653 2.653 0 0 1 2.65 2.65v16.478H47.755zm447.076 36.937V497H17.169v-22.675a5.464 5.464 0 0 1 5.458-5.458h466.745a5.464 5.464 0 0 1 5.459 5.458zm-30.586-36.937v16.478h-94.673v-16.478a2.653 2.653 0 0 1 2.65-2.65h89.362a2.658 2.658 0 0 1 2.661 2.65zm-71.602-17.65V261.937c6.068-2.528 11.331-6.859 14.951-12.534h18.625a32.427 32.427 0 0 0 14.946 12.534v157.801zm74.026-199.457c3.363 3.755 4.906 8.617 4.345 13.691-.885 8.008-7.34 14.468-15.347 15.359-7.064.788-13.857-2.685-17.31-8.844-2.104-3.753-6.128-6.085-10.501-6.085H405.95c-4.333 0-8.379 2.374-10.559 6.196a17.548 17.548 0 0 1-15.208 8.846 17.355 17.355 0 0 1-12.592-5.348c-3.326-3.447-5.064-7.99-4.894-12.794.331-9.293 8.443-16.852 18.085-16.852h72.847a17.532 17.532 0 0 1 13.04 5.831zm28.162-20.83H17.169v-28.827H494.83v28.827z" fill="#fff" data-original="#000000"/></svg>